<svg width="150" height="203" viewBox="0 0 150 203" fill="none" xmlns="http://www.w3.org/2000/svg">
<g id="Logo" clip-path="url(#clip0_323_1183)">
<path id="Vector" d="M100.356 145.827C97.9073 150.082 95.1023 153.937 91.9856 157.435C88.869 160.911 85.4629 163.785 81.7675 166.035C78.0943 168.286 74.243 169.422 70.2581 169.422C66.9857 169.422 63.9358 168.33 61.1308 166.124C58.3258 163.919 55.788 160.955 53.5395 157.212C51.2911 153.469 49.2875 149.147 47.5511 144.223C45.8147 139.299 44.3454 134.107 43.1655 128.626C41.9856 123.145 41.0952 117.575 40.4718 111.871C39.8485 106.19 39.5591 100.731 39.5591 95.5171C39.5591 86.2929 40.2938 77.9154 41.7853 70.3846C43.2768 62.8537 45.3694 56.4369 48.0854 51.1118C50.8013 45.7868 54.0961 41.6649 57.9919 38.7461C61.8877 35.8273 66.2287 34.3568 71.0373 34.3568C73.9091 34.3568 76.8699 35.0698 79.942 36.518C83.0141 37.9663 86.0863 39.9492 89.1584 42.5115C92.2305 45.0738 95.1913 48.1485 98.0631 51.7357C100.935 55.3229 103.54 59.3111 105.899 63.7227H107.435C106.011 57.5732 104.92 51.8694 104.207 46.5889C103.495 41.3084 103.027 36.2729 102.827 31.4603L101.447 30.9924C100.935 32.9308 100.133 34.2677 99.0649 34.9807C97.9963 35.6936 96.6384 36.0501 94.991 36.0501C93.6553 36.0501 92.1192 35.8496 90.3828 35.4263C88.6464 35.0252 86.8209 34.5796 84.9287 34.1117C83.0364 33.6438 81.0106 33.2428 78.8735 32.8863C76.7141 32.5298 74.5324 32.3516 72.2617 32.3516C67.6535 32.3516 63.357 33.4433 59.3721 35.6491C55.3873 37.8549 51.7808 40.8182 48.5529 44.5613C45.3249 48.3045 42.4977 52.6715 40.0266 57.7069C37.5778 62.72 35.5075 68.0897 33.8156 73.7712C32.1237 79.4528 30.8548 85.2903 29.9865 91.2838C29.1183 97.2773 28.6731 103.182 28.6731 109.019C28.6731 118.756 29.6526 127.468 31.5894 135.132C33.5262 142.819 36.2866 149.347 39.8708 154.717C43.4549 160.086 47.796 164.208 52.9162 167.083C58.0364 169.957 63.8245 171.383 70.2581 171.383C71.4825 171.383 73.5306 171.004 76.4024 170.224C79.2742 169.444 82.3686 168.62 85.6856 167.684C89.0026 166.771 92.2083 165.924 95.2804 165.144C98.3525 164.387 100.712 163.986 102.337 163.986L102.961 163.362C103.161 161.423 103.384 159.195 103.651 156.677C103.896 154.16 104.23 151.575 104.653 148.924C105.053 146.25 105.521 143.599 106.033 140.925C106.545 138.251 107.168 135.756 107.881 133.394H106.189C104.764 137.382 102.805 141.504 100.356 145.76V145.827Z" fill="white"/>
<path id="Vector_2" d="M53.6509 142.707V143.599C55.3651 143.532 57.146 143.443 58.9715 143.309C60.8192 143.175 62.5556 143.109 64.203 143.109C66.1175 143.109 67.9653 143.198 69.7907 143.354C71.5939 143.51 73.219 143.599 74.6661 143.599C91.4515 143.599 99.8441 135.377 99.8441 118.912C99.8441 112.851 98.3526 108.083 95.3473 104.585C92.3419 101.087 87.8896 98.9928 81.9679 98.2576C84.4612 97.4109 86.5761 96.1855 88.2903 94.6036C90.0044 93.0216 91.4069 91.1946 92.4755 89.1225C93.5663 87.0504 94.3455 84.8001 94.8352 82.3938C95.325 79.9875 95.5699 77.6034 95.5699 75.2417C95.5699 68.4684 94.1006 63.5666 91.1843 60.581C88.2458 57.5954 83.4595 56.0803 76.8254 56.0803C75.3116 56.0803 73.4194 56.1472 71.1487 56.2809C68.878 56.4145 66.6518 56.4814 64.4924 56.4814C62.845 56.4814 61.1086 56.4145 59.2609 56.2809C57.4132 56.1472 55.5432 56.0581 53.6287 55.9912V56.8824C58.3704 57.8628 60.7302 62.1852 60.7302 69.8275V129.785C60.7302 133.662 60.1736 136.669 59.0605 138.764C57.9475 140.88 56.122 142.195 53.6287 142.707H53.6509ZM87.3108 105.209C90.4052 108.863 91.9412 114.745 91.9412 122.833C91.9412 129.562 90.65 134.486 88.0899 137.605C85.5298 140.724 81.5004 142.306 76.0463 142.306C73.0855 142.306 71.0374 141.638 69.8798 140.279C68.7222 138.92 68.1434 136.469 68.1434 132.926V99.9286C68.8335 99.8618 69.5013 99.8172 70.1692 99.7949C70.8593 99.7727 71.5271 99.7504 72.195 99.7504C79.1629 99.7504 84.1941 101.577 87.2885 105.231L87.3108 105.209ZM69.8798 59.3779C71.0374 57.9519 72.9964 57.2612 75.7569 57.2612C79.9644 57.2612 83.0365 58.8209 84.9733 61.9624C86.91 65.0817 87.8896 70.1171 87.8896 77.0241C87.8896 78.9403 87.8005 80.9678 87.6447 83.1513C87.4888 85.3348 87.0881 87.4069 86.4648 89.3676C85.8415 91.3506 84.9065 93.1108 83.7043 94.6481C82.4799 96.1855 80.8326 97.2995 78.7177 97.9456H77.0481C75.7346 97.9456 74.3321 97.9902 72.8629 98.057C71.3936 98.1239 69.813 98.213 68.1656 98.3467V66.7305C68.1656 63.2324 68.7444 60.7815 69.902 59.3779H69.8798Z" fill="white"/>
<path id="Vector_3" d="M75 0C33.5708 0 0 45.2965 0 101.199C0 157.078 33.5708 202.397 75 202.397C116.429 202.397 150 157.101 150 101.199C150 45.3188 116.407 0 75 0ZM75 190.923C38.268 190.923 8.50401 150.751 8.50401 101.199C8.50401 51.6465 38.268 11.4522 75 11.4745C111.732 11.4745 141.496 51.6465 141.496 101.199C141.496 150.751 111.732 190.923 75 190.923Z" fill="white"/>
</g>
<defs>
<clipPath id="clip0_323_1183">
<rect width="150" height="202.397" fill="white"/>
</clipPath>
</defs>
</svg>
